# xmcd CD database file
#
# Track frame offsets:
#	150
#	22187
#	41660
#	63645
#	94260
#
# Disc length: 4440 seconds
#
# Revision: 0
# Processed by: cddbd v1.5PL3 Copyright (c) Steve Scherf et al.
# Submitted via: CDex 1.51
#
DISCID=43115605
DTITLE=若槻 千夏 - Diamond 〜キボウノシルシ〜
DYEAR=2004
DGENRE=JPop
TTITLE0=Diamond 〜キボウノシルシ〜
TTITLE1=あなたのいない雨
TTITLE2=Diamond 〜キボウノシルシ〜 (instrumental)
TTITLE3=あなたのいない雨 (instrumental)
TTITLE4=CCCD
EXTD=YEAR: 2004
EXTT0=
EXTT1=
EXTT2=
EXTT3=
EXTT4=
PLAYORDER=
